<?xml version="1.0" encoding="utf-8"?>
<!-- Generator: Adobe Illustrator 16.0.0, SVG Export Plug-In . SVG Version: 6.00 Build 0)  -->
<!DOCTYPE svg PUBLIC "-//W3C//DTD SVG 1.1//EN" "http://www.w3.org/Graphics/SVG/1.1/DTD/svg11.dtd">
<svg version="1.1" id="Layer_1" xmlns="http://www.w3.org/2000/svg" xmlns:xlink="http://www.w3.org/1999/xlink" x="0px" y="0px"
	 width="432.939px" height="304.918px" viewBox="0 0 432.939 304.918" enable-background="new 0 0 432.939 304.918"
	 xml:space="preserve">
<path fill="#FFFFFF" d="M173.957,193.063c-3.561,0-6.482,1.278-8.765,3.835c-2.283,2.557-3.424,5.844-3.424,9.861
	c0,4.017,1.141,7.29,3.424,9.814c2.282,2.527,5.204,3.789,8.765,3.789c3.562,0,6.483-1.262,8.766-3.789
	c2.282-2.524,3.424-5.798,3.424-9.814c0-4.018-1.142-7.305-3.424-9.861S177.519,193.063,173.957,193.063z"/>
<path fill="#FFFFFF" d="M294.508,187.494c-4.718-4.077-10.56-6.117-17.317-6.117c-6.756,0-12.668,2.282-17.629,6.848
	c-4.962,4.565-7.468,10.714-7.468,18.443c0,7.731,2.422,13.895,7.292,18.489c4.869,4.597,11.025,6.894,18.482,6.894
	c7.456,0,13.95-2.616,19.489-7.853l-7.67-8.309c-3.104,3.228-7.063,4.839-11.871,4.839c-2.982,0-5.662-1.037-8.035-2.74
	c-2.374-1.705-3.775-3.76-4.2-6.76h36.215v-6.935C301.796,197.172,299.225,191.573,294.508,187.494z M265.946,202.229
	c0.365-3,1.673-5.223,3.926-6.865c2.251-1.643,4.732-2.565,7.441-2.565c2.708,0,5.006,0.942,6.894,2.524
	c1.886,1.584,2.981,3.906,3.287,6.906H265.946z"/>
<path fill="#FFFFFF" d="M320.819,162.202c-2.252,0-4.154,0.776-5.706,2.329c-1.553,1.552-2.328,3.455-2.328,5.706
	c0,2.253,0.775,4.154,2.328,5.707c1.552,1.552,3.454,2.328,5.706,2.328s4.154-0.776,5.707-2.328
	c1.552-1.553,2.328-3.454,2.328-5.707c0-2.251-0.776-4.154-2.328-5.706C324.974,162.979,323.071,162.202,320.819,162.202z"/>
<rect x="313.796" y="182.229" fill="#FFFFFF" width="14" height="49"/>
<path fill="#FFFFFF" d="M361.124,174.939c0.913-1.004,2.049-1.506,3.449-1.506c2.435,0,4.646,1.156,6.656,3.469l4.924-9.222
	c-3.957-3.652-8.356-5.479-13.195-5.479s-8.955,1.568-12.211,4.703c-3.257,3.136-4.951,7.381-4.951,12.736v2.587h-6v10h6v39h14v-39
	h12v-10h-12v-2.86C359.796,177.421,360.211,175.944,361.124,174.939z"/>
<path fill="#FFFFFF" d="M415.227,182.229l-11.961,30.587l-11.961-30.587h-14.608c12.66,32,18.991,48.621,18.991,50.02
	c0,1.4-0.456,2.717-1.369,3.965c-0.913,1.247-2.009,1.868-3.287,1.868c-2.436,0-4.81-1.129-7.122-3.381l-6.209,10.134
	c4.261,3.896,8.796,5.844,13.604,5.844c3.47,0,6.62-0.93,9.45-2.785c2.831-1.858,4.915-4.444,6.255-7.791l22.826-57.873H415.227z"/>
<path fill="#FFFFFF" d="M316.394,123.702c5.895-5.771,4.036-11.45-4.131-12.618l-85.872-12.285
	c-8.167-1.168-17.849-8.17-21.517-15.561L166.312,5.534c-3.667-7.39-9.642-7.377-13.277,0.029l-38.221,77.873
	c-3.635,7.406-13.287,14.451-21.448,15.655L7.549,111.755c-8.162,1.204-9.996,6.891-4.075,12.636l62.251,60.414
	c5.92,5.745,9.638,17.102,8.261,25.236L59.51,295.569c-1.377,8.135,3.464,11.636,10.758,7.78l76.692-40.535
	c7.294-3.854,19.243-3.881,26.554-0.058l76.872,40.197c7.311,3.823,12.137,0.301,10.724-7.827l-14.852-85.466
	c-1.413-8.128,2.255-19.501,8.149-25.272L316.394,123.702z M135.455,128.184l2.455-4.974l2.455,4.974l5.489,0.798l-3.972,3.872
	l0.938,5.467l-4.91-2.581l-4.909,2.581l0.938-5.467l-3.973-3.872L135.455,128.184z M112.455,128.184l2.455-4.974l2.455,4.974
	l5.489,0.798l-3.972,3.872l0.938,5.467l-4.91-2.581l-4.909,2.581l0.938-5.467l-3.973-3.872L112.455,128.184z M120.408,231.229
	h-12.052l-25.657-64h15.431l16.252,40.631l16.252-40.631h15.431L120.408,231.229z M179.455,128.184l2.455-4.974l2.455,4.974
	l5.489,0.798l-3.972,3.872l0.938,5.467l-4.91-2.581l-4.909,2.581l0.938-5.467l-3.973-3.872L179.455,128.184z M158.455,128.184
	l2.455-4.974l2.455,4.974l5.489,0.798l-3.972,3.872l0.938,5.467l-4.91-2.581l-4.909,2.581l0.938-5.467l-3.973-3.872L158.455,128.184
	z M192.538,224.746c-4.931,4.871-11.125,7.305-18.581,7.305c-7.457,0-13.649-2.434-18.58-7.305
	c-4.931-4.869-7.396-10.865-7.396-17.986c0-7.122,2.465-13.133,7.396-18.033c4.931-4.899,11.123-7.35,18.58-7.35
	c7.456,0,13.65,2.45,18.581,7.35c4.931,4.9,7.396,10.911,7.396,18.033C199.934,213.881,197.469,219.877,192.538,224.746z
	 M200.001,138.32l0.938-5.467l-3.973-3.872l5.489-0.798l2.455-4.974l2.455,4.974l5.489,0.798l-3.972,3.872l0.938,5.467l-4.91-2.581
	L200.001,138.32z M231.297,232.051c-4.718,0-8.532-1.552-11.788-4.656c-3.258-3.104-4.713-7.335-4.713-12.691v-22.475h-6v-10h6v-15
	h13v15h12v10h-12v21.835c0,1.888,0.707,3.364,1.682,4.429c0.973,1.065,2.241,1.598,3.581,1.598c2.557,0,4.771-1.155,6.537-3.47
	l5.142,9.587C240.476,230.104,236.014,232.051,231.297,232.051z"/>
</svg>
